<svg width="225px" height="50px" viewBox="0 0 225 50" version="1.1" xmlns="http://www.w3.org/2000/svg">
	<path fill="#ffffff" d=" M 0.00 0.00 L 225.00 0.00 L 225.00 50.00 L 0.00 50.00 L 0.00 0.00 Z" />
	<path class="primary-color-svg" d=" M 26.70 4.51 C 26.81 3.95 27.02 2.82 27.13 2.26 L 27.10 2.83 C 31.80 3.01 38.84 3.34 40.18 9.04 C 41.04 12.86 37.33 15.14 34.32 16.35 C 36.73 17.77 39.42 19.80 38.99 22.99 C 38.82 29.35 30.83 33.19 25.70 29.46 C 26.60 28.21 27.51 26.95 28.43 25.71 C 29.01 27.25 29.60 28.79 30.19 30.33 C 33.27 26.41 35.50 19.89 31.03 16.12 C 34.10 14.80 36.01 11.34 34.59 8.09 C 33.50 4.85 29.64 4.34 26.70 4.51 Z" />
	<path class="primary-color-svg" d=" M 65.02 5.21 C 67.47 4.36 69.93 3.52 72.40 2.73 C 73.55 7.70 70.78 12.15 67.87 15.91 C 69.73 15.22 71.59 13.73 73.67 14.14 C 75.64 14.94 74.89 17.26 74.58 18.85 C 73.74 21.98 72.60 25.03 72.07 28.23 C 73.94 27.15 76.41 26.36 76.98 23.99 C 78.31 19.51 81.44 15.25 86.22 14.18 C 88.16 13.56 89.82 15.02 91.48 15.77 C 93.01 15.05 94.55 14.34 96.11 13.65 C 94.82 18.15 93.00 22.60 93.03 27.35 C 98.92 25.87 101.92 19.60 104.84 14.77 C 106.09 14.49 107.33 14.21 108.59 13.93 C 108.66 17.99 112.45 22.04 109.97 25.92 C 107.70 30.13 102.14 32.48 98.02 29.34 C 99.04 28.08 100.06 26.83 101.11 25.60 C 102.06 26.83 102.96 28.13 104.09 29.23 C 105.80 28.57 107.91 27.21 107.48 25.06 C 106.69 22.90 105.44 20.94 104.35 18.92 C 100.85 23.42 97.45 28.78 91.94 30.94 C 89.02 31.61 88.90 27.98 88.23 26.08 C 86.09 28.35 83.69 31.62 80.13 30.91 C 78.77 29.97 77.86 28.56 76.83 27.30 C 74.98 28.65 73.23 30.32 70.96 30.91 C 68.77 31.63 66.52 29.29 67.12 27.12 C 67.70 23.61 69.19 20.34 69.93 16.87 C 67.74 18.12 65.13 19.17 63.78 21.43 C 62.99 24.23 63.06 27.17 62.88 30.05 C 61.44 30.35 60.00 30.65 58.56 30.95 C 58.86 25.72 58.46 20.31 60.25 15.29 C 61.39 11.73 63.14 8.42 65.02 5.21 Z" />
	<path fill="#666666" d=" M 148.63 3.70 C 151.43 2.44 154.94 2.87 157.32 4.81 C 160.15 6.20 156.73 8.74 156.00 10.60 C 154.94 8.58 154.67 5.59 152.25 4.66 C 149.78 3.57 147.03 6.58 147.81 9.02 C 149.38 14.11 155.60 16.45 156.27 21.99 C 156.51 25.91 153.27 28.57 150.33 30.52 C 149.74 30.07 149.16 29.63 148.59 29.17 C 150.55 28.21 152.52 26.50 151.98 24.06 C 150.35 19.73 145.41 17.48 144.23 12.88 C 143.25 9.26 145.43 5.39 148.63 3.70 Z" />
	<path fill="#666666" d=" M 167.87 5.79 C 169.98 4.07 172.85 3.64 175.36 2.71 C 176.64 7.70 173.74 12.17 170.84 15.94 C 172.49 15.20 174.10 14.24 175.92 13.97 C 177.44 14.10 178.38 15.57 177.94 17.03 C 177.33 20.83 175.61 24.36 175.08 28.19 C 176.65 27.33 178.20 26.40 179.70 25.40 C 180.37 21.57 181.76 17.27 185.56 15.47 C 188.25 14.11 192.17 12.92 194.65 15.25 C 194.99 18.89 193.74 22.40 192.82 25.86 C 193.40 26.10 194.55 26.59 195.13 26.83 C 199.58 23.96 202.31 19.36 204.57 14.71 C 205.66 14.56 207.85 14.26 208.94 14.11 C 208.65 14.83 208.07 16.28 207.78 17.00 C 209.43 15.91 210.94 14.37 212.96 14.02 C 215.12 13.61 216.99 15.47 217.47 17.44 C 219.10 24.34 212.67 33.16 205.11 30.46 C 204.62 33.67 204.06 36.86 203.57 40.07 C 201.92 40.37 200.28 40.66 198.63 40.95 C 199.61 34.75 200.65 28.55 202.15 22.46 C 199.66 25.50 196.25 29.17 191.91 27.39 C 189.74 29.26 187.22 31.56 184.11 30.91 C 182.11 30.54 181.14 28.59 179.91 27.21 C 178.03 28.61 176.26 30.36 173.92 30.92 C 171.73 31.59 169.51 29.25 170.11 27.09 C 170.69 23.62 172.22 20.40 172.95 16.96 C 170.69 18.07 168.12 19.18 166.77 21.44 C 165.99 24.23 166.07 27.17 165.89 30.04 C 164.47 30.34 163.05 30.64 161.63 30.94 C 160.92 22.20 162.75 13.03 167.87 5.79 Z" />
	<path class="primary-color-svg" d=" M 14.92 11.12 C 16.48 6.97 20.64 4.75 24.58 3.36 C 25.24 3.89 25.90 4.42 26.56 4.96 C 22.65 5.21 18.49 7.73 17.91 11.88 C 18.61 13.29 19.57 14.55 20.44 15.87 C 18.98 16.31 17.52 16.77 16.01 17.06 C 14.81 15.36 13.92 13.14 14.92 11.12 Z" />
	<path fill="#ffffff" d=" M 64.07 18.38 C 65.49 13.35 66.98 7.90 71.21 4.44 C 71.13 9.99 67.45 14.36 64.07 18.38 Z" />
	<path fill="#ffffff" d=" M 167.06 18.39 C 168.52 13.38 169.94 7.87 174.22 4.46 C 174.15 10.01 170.43 14.37 167.06 18.39 Z" />
	<path class="primary-color-svg" d=" M 25.01 11.16 C 26.35 8.65 29.20 7.74 31.64 6.69 C 29.03 11.61 29.13 17.26 27.63 22.49 C 25.97 28.41 19.24 32.31 13.30 30.62 C 11.11 30.17 10.84 27.66 10.01 25.99 C 11.67 25.09 13.33 24.21 15.01 23.36 C 15.32 25.29 14.63 27.63 15.81 29.31 C 17.87 30.23 19.85 28.48 20.75 26.75 C 23.34 21.91 22.46 16.01 25.01 11.16 Z" />
	<path class="primary-color-svg" d=" M 42.29 18.26 C 44.99 14.81 50.79 12.38 54.65 15.20 C 54.97 19.09 53.59 22.83 52.73 26.56 C 54.43 26.15 56.09 25.55 57.80 25.21 C 58.39 28.41 53.91 27.84 51.92 27.45 C 49.44 29.61 45.98 32.31 42.60 30.33 C 38.63 27.60 39.74 21.63 42.29 18.26 Z" />
	<path class="primary-color-svg" d=" M 116.45 29.58 C 111.83 24.61 116.11 15.94 122.06 14.21 C 124.52 13.22 128.28 14.85 127.71 17.89 C 126.67 21.82 121.99 22.67 118.85 24.32 C 120.11 25.91 121.35 28.31 123.81 27.71 C 126.11 26.93 128.00 25.33 130.10 24.16 C 127.91 28.98 121.35 33.32 116.45 29.58 Z" />
	<path fill="#ffffff" d=" M 47.12 17.08 C 48.39 15.89 50.10 15.33 51.62 14.54 C 50.68 16.33 49.52 18.05 49.02 20.04 C 48.85 22.21 50.00 24.19 50.72 26.18 C 49.68 27.09 48.62 28.00 47.56 28.90 C 43.72 26.09 44.65 20.50 47.12 17.08 Z" />
	<path fill="#ffffff" d=" M 118.70 23.05 C 118.95 19.63 120.37 16.47 123.22 14.46 C 123.47 16.30 124.57 18.53 123.13 20.14 C 121.89 21.43 120.19 22.12 118.70 23.05 Z" />
	<path fill="#ffffff" d=" M 186.31 18.34 C 187.20 16.11 189.74 15.56 191.67 14.58 C 190.71 16.35 189.45 18.04 189.01 20.04 C 188.82 22.23 189.99 24.20 190.75 26.17 C 189.71 27.07 188.65 27.97 187.60 28.85 C 184.04 26.49 184.61 21.69 186.31 18.34 Z" />
	<path fill="#ffffff" d=" M 83.67 28.14 C 80.10 23.89 83.39 16.96 88.11 15.07 C 91.71 19.33 87.64 25.56 83.67 28.14 Z" />
	<path fill="#ffffff" d=" M 205.62 28.59 C 206.69 24.23 206.89 18.94 211.20 16.37 C 214.27 20.07 212.92 25.70 209.73 28.86 C 208.46 30.02 206.95 28.96 205.62 28.59 Z" />
	<path fill="#666666" d=" M 138.90 27.06 C 139.67 25.18 140.86 23.53 141.95 21.83 C 142.62 23.91 142.96 26.13 143.99 28.08 C 145.15 29.57 147.43 29.32 149.00 30.06 C 148.48 30.30 147.46 30.78 146.94 31.02 L 146.05 31.09 C 143.32 30.71 140.20 29.72 138.90 27.06 Z" />
	<path class="primary-color-svg" d=" M 109.85 41.36 C 110.51 39.71 111.19 38.06 111.88 36.42 C 112.64 37.95 113.39 39.49 114.15 41.02 C 113.81 41.38 113.15 42.08 112.81 42.44 C 114.24 42.03 115.68 41.68 117.14 41.38 C 117.69 42.73 117.78 44.19 117.97 45.62 C 116.39 45.09 114.83 44.55 113.25 44.04 C 113.90 45.30 114.56 46.55 115.23 47.80 C 113.08 47.77 110.93 47.78 108.78 47.82 C 109.40 46.55 110.02 45.28 110.64 44.01 C 109.10 44.54 107.57 45.08 106.04 45.62 C 106.08 44.44 106.16 43.27 106.30 42.10 C 107.47 41.81 108.65 41.56 109.85 41.36 Z" />
	<path class="primary-color-svg" d=" M 9.22 45.41 C 11.47 45.18 13.73 45.01 16.00 44.98 C 42.64 45.01 69.29 45.01 95.93 44.98 C 98.22 45.01 100.51 45.18 102.79 45.41 C 97.25 46.36 91.62 46.00 86.03 45.99 C 66.02 46.00 46.02 46.00 26.02 45.99 C 20.41 46.00 14.77 46.36 9.22 45.41 Z" />
	<path class="primary-color-svg" d=" M 121.23 45.41 C 123.79 45.14 126.37 44.97 128.95 44.97 C 157.96 45.05 186.98 44.97 216.00 45.01 L 216.02 45.99 C 186.68 46.03 157.34 45.94 128.01 46.04 C 125.74 46.00 123.47 45.75 121.23 45.41 Z" />
</svg>